<?xml version="1.0" standalone="no"?>
<!DOCTYPE svg PUBLIC "-//W3C//DTD SVG 20010904//EN"
 "http://www.w3.org/TR/2001/REC-SVG-20010904/DTD/svg10.dtd">
<svg version="1.0" xmlns="http://www.w3.org/2000/svg"
 width="150px" height="43px" viewBox="0 0 247.000000 77.000000"
 preserveAspectRatio="xMidYMid meet">

<g transform="translate(0.000000,77.000000) scale(0.100000,-0.100000)"
fill="#00A7E0" stroke="none">
<path d="M231 630 c-44 -11 -69 -43 -77 -102 -6 -42 -10 -48 -30 -48 -20 0
-24 -5 -24 -30 0 -25 4 -30 25 -30 l25 0 0 -125 0 -125 45 0 45 0 0 125 0 125
75 0 75 0 0 -91 c0 -129 20 -158 106 -159 59 0 63 2 56 35 -3 18 -11 25 -26
25 -43 0 -46 14 -46 212 l0 188 -45 0 -45 0 0 -75 0 -75 -75 0 -75 0 0 33 c0
45 10 55 55 59 35 3 40 6 43 31 3 23 0 27 -22 27 -13 0 -30 2 -38 4 -7 2 -28
0 -47 -4z"/>
<path d="M1552 628 c-7 -7 -12 -25 -12 -40 0 -40 39 -58 75 -34 29 19 31 33 9
64 -17 24 -53 29 -72 10z"/>
<path d="M707 476 c-21 -8 -47 -22 -57 -31 -68 -61 -67 -211 2 -259 33 -23
109 -21 142 5 l26 20 0 -20 c0 -17 6 -21 35 -21 l35 0 0 145 c0 136 -1 145
-21 155 -34 19 -120 22 -162 6z m87 -52 c23 -9 23 -150 -1 -176 -21 -23 -65
-23 -87 1 -63 69 6 206 88 175z"/>
<path d="M1092 470 c-39 -24 -42 -24 -42 -5 0 10 -11 15 -35 15 l-35 0 0 -156
0 -155 43 3 42 3 0 107 c1 117 9 138 55 138 45 0 54 -22 58 -141 l4 -109 39 0
39 0 0 115 c0 125 5 135 64 135 37 0 46 -27 46 -144 l0 -106 39 0 38 0 5 102
c6 114 -2 162 -30 190 -29 29 -89 33 -135 9 -38 -19 -39 -20 -70 0 -41 24 -83
24 -125 -1z"/>
<path d="M1796 480 c-61 -19 -96 -73 -96 -150 0 -109 51 -160 161 -160 77 0
92 8 84 43 -6 24 -9 25 -60 20 -44 -5 -56 -2 -73 15 -27 27 -36 62 -28 107 10
49 43 69 105 63 47 -5 50 -3 54 21 3 14 2 30 -2 34 -12 13 -113 18 -145 7z"/>
<path d="M2118 481 c-76 -25 -118 -85 -118 -171 0 -57 18 -101 52 -124 33 -23
109 -21 142 5 l26 20 0 -20 c0 -17 6 -21 35 -21 l35 0 0 145 c0 136 -1 145
-21 155 -28 15 -118 22 -151 11z m76 -57 c23 -9 23 -150 -1 -176 -21 -23 -65
-23 -87 1 -63 69 6 206 88 175z"/>
<path d="M1546 464 c-3 -9 -6 -78 -6 -155 l0 -139 45 0 45 0 0 155 0 155 -39
0 c-26 0 -41 -5 -45 -16z"/>
</g>
</svg>
