<?xml version="1.0" standalone="no"?>
<!DOCTYPE svg PUBLIC "-//W3C//DTD SVG 20010904//EN"
 "http://www.w3.org/TR/2001/REC-SVG-20010904/DTD/svg10.dtd">
<svg version="1.0" xmlns="http://www.w3.org/2000/svg"
 width="100px" height="100px" viewBox="0 0 3500.000000 1441.000000"
 preserveAspectRatio="xMidYMid meet">

<g transform="translate(0.000000,1441.000000) scale(0.100000,-0.100000)"
fill="#c6c6c6" stroke="none">
<path d="M27415 14400 c-1205 -71 -2268 -393 -3255 -984 -1131 -677 -2150
-1767 -2700 -2889 l-87 -177 -7 117 c-28 462 -146 903 -364 1353 -333 687
-878 1319 -1497 1736 -500 337 -984 524 -1555 601 -115 15 -398 17 -3502 20
l-3378 4 0 -7056 0 -7055 3218 3 c3514 3 3239 -1 3590 58 731 122 1450 467
2048 982 140 121 405 392 515 527 406 496 692 1049 833 1610 56 222 79 377
102 684 l6 79 75 -144 c153 -292 374 -640 595 -936 1161 -1558 2757 -2548
4573 -2838 623 -99 1296 -120 1910 -59 2108 209 4040 1381 5242 3179 661 989
1071 2133 1187 3310 51 515 44 1096 -19 1612 -317 2604 -2010 4798 -4451 5769
-656 260 -1356 421 -2119 484 -175 15 -774 21 -960 10z m-10544 -3392 c673
-183 1005 -1069 659 -1761 -61 -120 -127 -214 -220 -307 -132 -134 -266 -214
-438 -263 -77 -22 -83 -22 -1114 -25 l-1038 -3 0 1189 c0 654 3 1192 7 1196 4
4 467 6 1028 4 l1020 -4 96 -26z m11429 -212 c412 -59 773 -169 1130 -347
1004 -499 1718 -1435 1929 -2529 68 -351 83 -769 41 -1116 -80 -661 -348
-1297 -766 -1819 -114 -143 -409 -438 -549 -549 -1067 -850 -2489 -1029 -3737
-470 -236 105 -504 269 -738 450 -64 49 -202 175 -310 284 -200 199 -319 343
-454 545 -680 1019 -791 2319 -294 3445 285 645 776 1210 1383 1590 453 283
971 463 1516 525 170 19 688 14 849 -9z m-7614 -2695 c-13 -21 -46 -335 -57
-546 -22 -422 1 -1056 47 -1295 8 -41 14 -79 14 -83 0 -4 -35 38 -77 94 -318
422 -927 868 -1296 950 l-57 12 87 22 c368 94 955 455 1253 773 65 69 103 102
86 73z m-3803 -2394 c279 -87 498 -280 642 -566 43 -86 96 -245 116 -346 21
-103 18 -418 -4 -515 -60 -266 -168 -471 -337 -641 -88 -88 -169 -145 -283
-199 -167 -80 -77 -74 -1254 -78 l-1053 -2 0 1183 c0 651 3 1187 7 1191 4 4
473 5 1043 4 l1035 -3 88 -28z"/>
<path d="M27700 10054 c-637 -42 -1179 -250 -1652 -637 -1021 -833 -1328
-2271 -736 -3450 149 -297 385 -607 625 -822 450 -402 973 -639 1578 -716 129
-17 511 -17 640 0 452 57 864 207 1223 444 940 620 1421 1711 1242 2817 -200
1233 -1203 2196 -2442 2344 -128 16 -383 26 -478 20z"/>
<path d="M3 10393 c4 -2078 7 -5251 7 -7050 l0 -3273 1970 0 1970 0 0 2735 0
2735 1245 0 1245 0 0 -2735 0 -2735 1915 0 1915 0 0 7050 0 7050 -1915 0
-1915 0 0 -2620 0 -2620 -1245 0 -1245 0 0 2620 0 2620 -1977 0 -1976 0 6
-3777z"/>
</g>
</svg>
