<?xml version="1.0" standalone="no"?>
<!DOCTYPE svg PUBLIC "-//W3C//DTD SVG 20010904//EN"
 "http://www.w3.org/TR/2001/REC-SVG-20010904/DTD/svg10.dtd">
<svg version="1.0" xmlns="http://www.w3.org/2000/svg"
 width="115px" height="115px" viewBox="0 0 500.000000 500.000000"
 preserveAspectRatio="xMidYMid meet">

<g transform="translate(0.000000,500.000000) scale(0.100000,-0.100000)"
fill="#c6c6c6" stroke="none">
<path d="M160 2494 l0 -627 48 7 c26 4 67 10 92 14 l45 7 5 345 c3 190 6 336
8 325 1 -11 8 -32 16 -47 8 -15 22 -52 31 -83 8 -31 21 -68 27 -83 6 -15 37
-101 68 -192 88 -248 78 -230 124 -230 70 0 164 22 168 39 2 9 5 271 7 584 l3
567 -101 0 -101 0 0 -347 -1 -348 -55 145 c-30 80 -64 172 -76 205 -11 33 -24
65 -28 70 -4 6 -18 44 -30 85 -12 41 -25 80 -29 85 -5 6 -14 31 -21 58 l-13
47 -93 0 -94 0 0 -626z"/>
<path d="M990 2545 l0 -575 28 0 c45 0 424 29 468 36 41 6 41 6 48 57 17 142
17 142 -130 128 -66 -6 -143 -12 -171 -14 l-53 -4 0 148 0 149 135 0 135 0 0
99 0 98 -135 -5 -135 -5 0 137 0 136 180 0 181 0 -3 93 -3 92 -272 3 -273 2 0
-575z"/>
<path d="M1667 3113 c-4 -3 -7 -46 -7 -95 l0 -88 105 0 105 0 0 -456 0 -457
46 7 c26 3 71 6 100 6 l54 0 0 450 0 450 100 0 100 0 0 95 0 95 -298 0 c-164
0 -302 -3 -305 -7z"/>
<path d="M2400 2575 l0 -546 98 3 97 3 3 223 2 222 130 0 130 0 0 95 0 95
-130 0 -130 0 0 93 c0 50 -3 109 -6 130 l-7 37 182 0 181 0 0 95 0 95 -275 0
-275 0 0 -545z"/>
<path d="M3080 2571 l0 -548 183 -7 c100 -3 219 -9 265 -13 l82 -6 0 95 0 95
-46 7 c-26 3 -72 6 -103 6 -31 0 -87 3 -124 7 l-68 6 3 454 3 453 -97 0 -98 0
0 -549z"/>
<path d="M3780 2550 l0 -570 34 0 c18 0 61 -3 95 -6 l61 -7 0 577 0 576 -95 0
-95 0 0 -570z"/>
<path d="M4150 3116 c0 -9 32 -95 50 -133 11 -24 20 -47 20 -53 0 -6 9 -29 20
-53 10 -23 30 -71 43 -107 14 -36 39 -103 56 -149 l32 -85 -17 -45 c-17 -46
-23 -60 -103 -239 -22 -50 -41 -94 -41 -97 0 -7 -66 -152 -80 -177 -8 -15 -4
-18 28 -23 20 -3 62 -10 93 -15 77 -14 74 -15 94 33 10 23 28 65 40 92 64 150
90 204 94 192 2 -6 9 -25 17 -42 27 -62 103 -262 109 -287 6 -24 13 -27 63
-33 32 -4 73 -11 92 -16 19 -5 45 -9 58 -9 26 0 25 10 -9 87 -11 23 -19 45
-19 48 0 6 -82 219 -104 270 -8 17 -22 53 -31 80 -10 28 -22 55 -25 60 -4 6
-15 34 -25 64 -22 66 -23 60 76 276 10 22 27 65 39 95 12 30 25 59 29 65 5 5
18 37 30 70 13 33 26 64 30 70 4 5 12 22 19 38 l12 27 -109 0 -110 0 -21 -57
c-12 -31 -32 -79 -44 -107 -13 -28 -33 -75 -46 -103 -24 -56 -34 -60 -45 -16
-3 16 -15 46 -25 68 -10 22 -33 79 -51 128 l-33 87 -103 0 c-57 0 -103 -2
-103 -4z"/>
</g>
</svg>
