<?xml version="1.0" standalone="no"?>
<!DOCTYPE svg PUBLIC "-//W3C//DTD SVG 20010904//EN"
 "http://www.w3.org/TR/2001/REC-SVG-20010904/DTD/svg10.dtd">
<svg version="1.0" xmlns="http://www.w3.org/2000/svg"
 width="100px" height="100px" viewBox="0 0 3840.000000 2160.000000"
 preserveAspectRatio="xMidYMid meet">

<g transform="translate(0.000000,2160.000000) scale(0.100000,-0.100000)"
fill="#c6c6c6" stroke="none">
<path d="M26002 21445 c-411 -321 -743 -616 -1127 -1000 -725 -724 -1270
-1429 -1748 -2260 -128 -223 -387 -743 -481 -967 -393 -934 -604 -1809 -688
-2853 -15 -189 -18 -1213 -4 -1986 8 -473 7 -506 -9 -523 -24 -23 -46 -17 -65
19 -24 47 -527 722 -1370 1840 -427 567 -913 1212 -1080 1435 -167 223 -340
450 -384 505 -1056 1306 -2854 2904 -4241 3770 -146 91 -414 240 -1110 615
-634 342 -1008 549 -1264 700 -100 59 -167 93 -169 85 -4 -17 54 -525 84 -734
127 -885 292 -1580 499 -2101 610 -1536 1926 -3220 3355 -4294 389 -292 719
-493 1110 -676 1066 -500 1904 -844 2707 -1109 l322 -107 -197 -23 c-1320
-152 -2164 -367 -2904 -737 -402 -201 -695 -410 -1143 -815 -810 -734 -1301
-1491 -1455 -2247 -57 -282 -72 -642 -37 -871 62 -395 224 -753 493 -1091 102
-127 352 -372 502 -492 608 -484 1453 -871 2473 -1133 l185 -47 -52 -79 c-178
-266 -267 -628 -249 -1014 15 -331 56 -469 218 -743 52 -87 64 -101 81 -96 97
27 976 487 1794 936 351 193 420 223 519 222 101 0 109 -57 64 -465 -62 -555
-59 -649 20 -649 56 0 787 279 1391 531 851 354 1838 815 2058 960 139 91 264
221 318 329 107 217 241 718 331 1240 118 683 174 1354 175 2100 1 354 -2 464
-17 590 -106 932 -418 1629 -1097 2450 -243 294 -279 343 -296 393 -27 83 -15
105 158 285 361 377 624 703 893 1107 900 1356 1382 3010 1529 5250 24 361 34
593 51 1175 3 96 7 515 10 930 3 415 7 823 10 905 8 260 18 875 14 875 -3 0
-82 -61 -177 -135z m-8087 -11435 c271 -84 472 -293 547 -568 28 -105 31 -315
4 -417 -120 -463 -579 -718 -1026 -570 -196 65 -349 201 -440 390 -70 145 -85
211 -84 380 1 161 19 245 79 367 111 228 327 394 573 438 81 15 269 4 347 -20z"/>
<path d="M23715 2741 c-612 -155 -1070 -283 -1431 -401 -132 -44 -442 -140
-690 -215 -766 -232 -890 -278 -960 -358 -61 -69 -69 -109 -69 -335 0 -182 1
-195 20 -209 25 -19 117 -12 225 17 41 12 85 23 97 25 41 9 336 96 526 156
106 33 201 61 211 64 11 2 55 16 98 31 42 14 79 25 80 25 2 -1 57 17 123 39
66 23 127 43 135 45 9 1 81 24 160 49 80 25 150 47 155 48 6 1 66 19 135 41
69 21 136 40 149 43 13 3 32 9 43 15 10 5 18 7 18 4 0 -3 16 1 35 9 19 8 35
13 35 11 0 -3 12 0 28 6 15 6 36 13 47 15 11 2 108 29 215 59 107 31 203 58
213 60 51 12 327 91 427 122 63 20 120 37 125 39 56 12 136 53 167 85 89 92
159 415 114 523 -17 42 -51 66 -91 66 -16 -1 -169 -36 -340 -79z"/>
<path d="M16585 2735 c-3 -14 -7 -37 -10 -51 -23 -108 155 -1398 254 -1849 34
-151 45 -185 64 -185 24 0 186 84 522 270 497 275 740 391 872 414 17 3 56 -2
85 -10 290 -85 1166 -760 1456 -1122 100 -126 137 -141 167 -68 49 116 44 344
-26 1166 -39 464 -41 501 -40 855 2 330 -7 522 -25 569 -3 9 -12 16 -20 16
-20 0 -301 -146 -674 -350 -412 -226 -748 -397 -797 -406 -45 -9 -135 17 -323
91 -416 163 -1182 522 -1379 645 -76 47 -118 52 -126 15z"/>
</g>
</svg>
